<?xml version="1.0" encoding="UTF-8"?>
<svg version="1.1" xmlns="http://www.w3.org/2000/svg" width="673" height="673">
<path d="M0 0 C4.01048265 0.00024049 8.0202146 -0.04066166 12.03051758 -0.07861328 C85.50978893 -0.39854305 157.59584659 26.78894619 214.8762207 72.37060547 C217.10198181 73.99987623 219.33338602 75.61857427 221.58325195 77.21435547 C222.00993164 77.59591797 222.43661133 77.97748047 222.8762207 78.37060547 C222.8762207 79.03060547 222.8762207 79.69060547 222.8762207 80.37060547 C223.4124707 80.59748047 223.9487207 80.82435547 224.5012207 81.05810547 C227.70082232 82.82630636 230.16659293 84.9073075 232.8762207 87.37060547 C232.8762207 88.03060547 232.8762207 88.69060547 232.8762207 89.37060547 C233.5362207 89.37060547 234.1962207 89.37060547 234.8762207 89.37060547 C234.8762207 90.03060547 234.8762207 90.69060547 234.8762207 91.37060547 C235.45581543 91.62495361 236.03541016 91.87930176 236.63256836 92.14135742 C239.12053528 93.50446008 240.77685502 95.02820158 242.7746582 97.03857422 C243.50168945 97.76753906 244.2287207 98.49650391 244.9777832 99.24755859 C246.10313477 100.3912793 246.10313477 100.3912793 247.2512207 101.55810547 C247.9937207 102.30125 248.7362207 103.04439453 249.5012207 103.81005859 C261.8762207 116.2834464 261.8762207 116.2834464 261.8762207 119.37060547 C262.5362207 119.37060547 263.1962207 119.37060547 263.8762207 119.37060547 C264.5362207 121.02060547 265.1962207 122.67060547 265.8762207 124.37060547 C266.5362207 124.37060547 267.1962207 124.37060547 267.8762207 124.37060547 C269.27856445 125.97998047 269.27856445 125.97998047 270.8137207 128.12060547 C271.31774414 128.81669922 271.82176758 129.51279297 272.34106445 130.22998047 C272.84766602 130.93638672 273.35426758 131.64279297 273.8762207 132.37060547 C274.43438477 133.07701172 274.99254883 133.78341797 275.56762695 134.51123047 C276.8762207 136.37060547 276.8762207 136.37060547 276.8762207 138.37060547 C277.5362207 138.37060547 278.1962207 138.37060547 278.8762207 138.37060547 C280.42700195 140.53076172 280.42700195 140.53076172 282.1887207 143.43310547 C284.18085191 146.66414472 286.15519673 149.83826357 288.4387207 152.87060547 C291.07062236 156.48519769 293.11872839 160.36163654 295.21606445 164.30419922 C296.9895297 167.57989385 298.86635153 170.78284412 300.7512207 173.99560547 C304.9742537 181.28292479 308.52964138 188.84316044 312.01831055 196.50341797 C312.729491 198.0512575 313.46568972 199.58757377 314.20825195 201.12060547 C331.58088406 237.37653334 341.00887681 279.65485761 341.04418945 319.72607422 C341.04741687 321.08067355 341.05078194 322.43527255 341.05427551 323.78987122 C341.06021538 326.61277064 341.06212081 329.4356397 341.06152344 332.25854492 C341.0614423 335.11603135 341.06837292 337.97335705 341.08203125 340.83081055 C341.22302633 370.77883546 341.22302633 370.77883546 338.8762207 385.37060547 C338.63849168 387.09836704 338.40140176 388.82621682 338.1652832 390.55419922 C332.89318766 425.22078859 322.38392445 459.36833257 305.8762207 490.37060547 C305.27938477 491.51916016 304.68254883 492.66771484 304.06762695 493.85107422 C300.81201567 500.03601058 297.30691333 505.96397523 293.4934082 511.81982422 C292.01622157 514.14978285 290.67875546 516.50255859 289.3762207 518.93310547 C287.01450502 523.2944071 284.22464059 527.28225697 281.3293457 531.30419922 C279.85013757 533.29887291 279.85013757 533.29887291 278.8762207 535.37060547 C278.2162207 535.37060547 277.5562207 535.37060547 276.8762207 535.37060547 C276.6699707 536.05123047 276.4637207 536.73185547 276.2512207 537.43310547 C274.68259113 540.78426865 272.68523309 543.09709793 270.21606445 545.81982422 C268.78532989 547.34710001 268.78532989 547.34710001 267.8762207 549.37060547 C267.2162207 549.37060547 266.5562207 549.37060547 265.8762207 549.37060547 C265.2162207 551.02060547 264.5562207 552.67060547 263.8762207 554.37060547 C263.2162207 554.37060547 262.5562207 554.37060547 261.8762207 554.37060547 C261.65836914 554.90556641 261.44051758 555.44052734 261.21606445 555.99169922 C259.39932061 559.21734645 256.96296507 561.75759701 254.4387207 564.43310547 C253.91101074 564.99731201 253.38330078 565.56151855 252.83959961 566.14282227 C241.31032928 578.40533633 241.31032928 578.40533633 236.8762207 582.37060547 C236.2162207 582.37060547 235.5562207 582.37060547 234.8762207 582.37060547 C234.8762207 583.03060547 234.8762207 583.69060547 234.8762207 584.37060547 C234.2162207 584.37060547 233.5562207 584.37060547 232.8762207 584.37060547 C232.6699707 584.92748047 232.4637207 585.48435547 232.2512207 586.05810547 C230.29939039 589.34072918 227.93391076 591.07733793 224.8762207 593.37060547 C224.2162207 593.37060547 223.5562207 593.37060547 222.8762207 593.37060547 C222.8762207 594.03060547 222.8762207 594.69060547 222.8762207 595.37060547 C221.04237792 597.0323299 219.20664025 598.54873473 217.2512207 600.05810547 C216.64238037 600.5321582 216.03354004 601.00621094 215.40625 601.49462891 C188.10000731 622.41459944 158.25004121 640.51372868 125.8762207 652.37060547 C124.49853516 652.87889893 124.49853516 652.87889893 123.09301758 653.39746094 C100.16239738 661.78715611 77.05196576 667.87303545 52.8762207 671.37060547 C51.75030518 671.54865723 50.62438965 671.72670898 49.46435547 671.91015625 C36.26914444 673.7622028 23.05755983 673.74540659 9.75244141 673.74121094 C5.74195875 673.74097045 1.73222681 673.7818726 -2.27807617 673.81982422 C-75.75734753 674.13975399 -147.84340518 646.95226475 -205.1237793 601.37060547 C-207.3495404 599.7413347 -209.58094462 598.12263666 -211.83081055 596.52685547 C-212.25749023 596.14529297 -212.68416992 595.76373047 -213.1237793 595.37060547 C-213.1237793 594.71060547 -213.1237793 594.05060547 -213.1237793 593.37060547 C-213.6600293 593.14373047 -214.1962793 592.91685547 -214.7487793 592.68310547 C-217.94838091 590.91490458 -220.41415153 588.83390344 -223.1237793 586.37060547 C-223.1237793 585.71060547 -223.1237793 585.05060547 -223.1237793 584.37060547 C-223.7837793 584.37060547 -224.4437793 584.37060547 -225.1237793 584.37060547 C-225.1237793 583.71060547 -225.1237793 583.05060547 -225.1237793 582.37060547 C-225.99317139 581.98908325 -225.99317139 581.98908325 -226.88012695 581.59985352 C-229.36809387 580.23675086 -231.02441361 578.71300936 -233.0222168 576.70263672 C-233.74924805 575.97367188 -234.4762793 575.24470703 -235.2253418 574.49365234 C-236.35069336 573.34993164 -236.35069336 573.34993164 -237.4987793 572.18310547 C-238.2412793 571.43996094 -238.9837793 570.69681641 -239.7487793 569.93115234 C-252.1237793 557.45776453 -252.1237793 557.45776453 -252.1237793 554.37060547 C-252.7837793 554.37060547 -253.4437793 554.37060547 -254.1237793 554.37060547 C-254.7837793 552.72060547 -255.4437793 551.07060547 -256.1237793 549.37060547 C-256.7837793 549.37060547 -257.4437793 549.37060547 -258.1237793 549.37060547 C-259.52612305 547.76123047 -259.52612305 547.76123047 -261.0612793 545.62060547 C-261.56530273 544.92451172 -262.06932617 544.22841797 -262.58862305 543.51123047 C-263.34852539 542.45162109 -263.34852539 542.45162109 -264.1237793 541.37060547 C-264.68194336 540.66419922 -265.24010742 539.95779297 -265.81518555 539.22998047 C-267.1237793 537.37060547 -267.1237793 537.37060547 -267.1237793 535.37060547 C-267.7837793 535.37060547 -268.4437793 535.37060547 -269.1237793 535.37060547 C-270.67456055 533.21044922 -270.67456055 533.21044922 -272.4362793 530.30810547 C-274.4284105 527.07706622 -276.40275532 523.90294737 -278.6862793 520.87060547 C-281.31818096 517.25601325 -283.36628698 513.3795744 -285.46362305 509.43701172 C-287.23708829 506.16131709 -289.11391012 502.95836682 -290.9987793 499.74560547 C-295.2218123 492.45828615 -298.77719997 484.89805049 -302.26586914 477.23779297 C-302.9770496 475.68995343 -303.71324832 474.15363717 -304.45581055 472.62060547 C-318.25792289 443.8161971 -325.65546305 411.82287571 -330.1237793 380.37060547 C-330.23657227 379.58274658 -330.34936523 378.7948877 -330.46557617 377.9831543 C-334.103886 350.69277835 -334.09828454 320.61757844 -330.1237793 293.37060547 C-329.98423828 292.40751465 -329.84469727 291.44442383 -329.70092773 290.45214844 C-328.64930603 283.39779861 -327.43591949 276.3808243 -326.1237793 269.37060547 C-325.98246582 268.59861816 -325.84115234 267.82663086 -325.69555664 267.03125 C-320.2824555 238.11992263 -309.93855889 209.31543543 -296.1237793 183.37060547 C-295.52694336 182.22205078 -294.93010742 181.07349609 -294.31518555 179.89013672 C-291.05957426 173.70520036 -287.55447193 167.77723571 -283.7409668 161.92138672 C-282.26378016 159.59142809 -280.92631405 157.23865235 -279.6237793 154.80810547 C-277.26206361 150.44680384 -274.47219918 146.45895396 -271.5769043 142.43701172 C-270.09769616 140.44233803 -270.09769616 140.44233803 -269.1237793 138.37060547 C-268.4637793 138.37060547 -267.8037793 138.37060547 -267.1237793 138.37060547 C-266.8144043 137.34966797 -266.8144043 137.34966797 -266.4987793 136.30810547 C-264.93014972 132.95694229 -262.93279168 130.64411301 -260.46362305 127.92138672 C-259.03288849 126.39411093 -259.03288849 126.39411093 -258.1237793 124.37060547 C-257.4637793 124.37060547 -256.8037793 124.37060547 -256.1237793 124.37060547 C-255.4637793 122.72060547 -254.8037793 121.07060547 -254.1237793 119.37060547 C-253.4637793 119.37060547 -252.8037793 119.37060547 -252.1237793 119.37060547 C-251.79700195 118.56816406 -251.79700195 118.56816406 -251.46362305 117.74951172 C-249.6468792 114.52386449 -247.21052366 111.98361393 -244.6862793 109.30810547 C-243.89471436 108.46179565 -243.89471436 108.46179565 -243.0871582 107.59838867 C-231.55788787 95.33587461 -231.55788787 95.33587461 -227.1237793 91.37060547 C-226.4637793 91.37060547 -225.8037793 91.37060547 -225.1237793 91.37060547 C-225.1237793 90.71060547 -225.1237793 90.05060547 -225.1237793 89.37060547 C-224.4637793 89.37060547 -223.8037793 89.37060547 -223.1237793 89.37060547 C-222.9175293 88.81373047 -222.7112793 88.25685547 -222.4987793 87.68310547 C-220.54694898 84.40048175 -218.18146935 82.66387301 -215.1237793 80.37060547 C-214.4637793 80.37060547 -213.8037793 80.37060547 -213.1237793 80.37060547 C-213.1237793 79.71060547 -213.1237793 79.05060547 -213.1237793 78.37060547 C-211.28993652 76.70888104 -209.45419884 75.19247621 -207.4987793 73.68310547 C-206.88993896 73.20905273 -206.28109863 72.735 -205.65380859 72.24658203 C-178.3475659 51.32661149 -148.49759981 33.22748225 -116.1237793 21.37060547 C-115.20532227 21.03174316 -114.28686523 20.69288086 -113.34057617 20.34375 C-90.40995597 11.95405483 -67.29952436 5.86817549 -43.1237793 2.37060547 C-41.99786377 2.19255371 -40.87194824 2.01450195 -39.71191406 1.83105469 C-26.51670303 -0.02099187 -13.30511842 -0.00419565 0 0 Z " fill="#00352B" transform="translate(332.123779296875,-0.37060546875)"/>
<path d="M0 0 C48.18 0 96.36 0 146 0 C146.33 0.66 146.66 1.32 147 2 C149.37199819 2.31014159 151.64379968 2.4928052 154.02734375 2.59765625 C154.73145889 2.63684677 155.43557404 2.67603729 156.161026 2.71641541 C158.4194711 2.84087964 160.67831115 2.95243019 162.9375 3.0625 C165.19296432 3.17792487 167.44820859 3.29610552 169.70326233 3.41929626 C171.10863212 3.49550498 172.51427263 3.56690019 173.92015076 3.6330719 C178.77691339 3.8884567 178.77691339 3.8884567 181 5 C182.55941802 5.18495128 184.12485158 5.32060954 185.69140625 5.4296875 C186.63693359 5.50316406 187.58246094 5.57664062 188.55664062 5.65234375 C190.53278518 5.79872483 192.50935326 5.93951505 194.48632812 6.07421875 C199.99000891 6.51272944 204.80330053 7.36843739 209.98803711 9.2734375 C213.75593037 10.63410372 217.69035676 11.381557 221.59375 12.25390625 C222.3878125 12.50011719 223.181875 12.74632813 224 13 C224.33 13.66 224.66 14.32 225 15 C226.82351871 15.16375119 226.82351871 15.16375119 229.0625 15.125 C240.77942485 16.01980838 252.599752 24.68016203 262.4375 30.625 C263.11683594 31.02976563 263.79617188 31.43453125 264.49609375 31.8515625 C264.99238281 32.23054688 265.48867188 32.60953125 266 33 C266 33.66 266 34.32 266 35 C266.84046875 35.061875 267.6809375 35.12375 268.546875 35.1875 C272.9687178 36.2279336 275.6923169 38.26476495 279.25 41 C279.90750244 41.4947583 280.56500488 41.9895166 281.24243164 42.49926758 C289.79667142 49.01513927 297.47394257 56.33833793 305 64 C305.845625 64.825 306.69125 65.65 307.5625 66.5 C310.85517648 69.87710409 313.93423144 73.41720158 317 77 C318.175625 78.36125 318.175625 78.36125 319.375 79.75 C320.98114516 81.9738933 321.39118417 83.39078928 322 86 C322.97850195 87.02104551 323.97980427 88.0206121 325 89 C325.33 89.680625 325.66 90.36125 326 91.0625 C326.97325058 93.33242155 326.97325058 93.33242155 330 95 C330.80859375 96.8046875 330.80859375 96.8046875 331.4375 98.875 C332.35824995 101.54660609 332.84689879 102.84689879 334.875 104.875 C339.3280548 109.3280548 341.93496636 116.09855065 344 122 C344 123.32 344 124.64 344 126 C344.66 126 345.32 126 346 126 C346.27263672 126.99580078 346.27263672 126.99580078 346.55078125 128.01171875 C348.0702893 133.49060004 348.0702893 133.49060004 350.5625 138.5625 C352.36851151 141.62486734 352.85912186 144.53502385 353.47265625 148.01171875 C353.87842756 150.21322777 353.87842756 150.21322777 356 152 C356.5625 154.58203125 356.5625 154.58203125 357 157.8125 C357.16242188 158.9675 357.32484375 160.1225 357.4921875 161.3125 C357.65976562 162.529375 357.82734375 163.74625 358 165 C358.37080081 167.43814233 358.74558341 169.87568357 359.125 172.3125 C359.41666667 174.20833333 359.70833333 176.10416667 360 178 C360.66 178 361.32 178 362 178 C364.29269076 208.85071511 365.58096389 239.89658157 362.6875 270.75 C362.56995361 272.00893066 362.45240723 273.26786133 362.33129883 274.56494141 C361.48506874 282.55356972 359.94052725 290.21154611 358 298 C357.51697559 300.10328445 357.03735486 302.20735608 356.5625 304.3125 C356.04479746 306.54239584 355.52375616 308.77151826 355 311 C354.77376953 311.96607178 354.77376953 311.96607178 354.54296875 312.95166016 C352.73230924 320.62672195 350.77717217 328.1383552 347.94921875 335.515625 C346.50314879 339.3004007 345.25528081 343.14857025 344 347 C343.01 347 342.02 347 341 347 C341.103125 347.804375 341.20625 348.60875 341.3125 349.4375 C340.93716467 353.71632273 339.41850942 356.0509857 337.24609375 359.67578125 C335.44451935 363.0360846 334.74516327 366.27418367 334 370 C333.34 370 332.68 370 332 370 C331.9175 370.5775 331.835 371.155 331.75 371.75 C330.78961772 374.63114684 329.13845527 375.86154473 327 378 C326.54882812 378.91394531 326.09765625 379.82789063 325.6328125 380.76953125 C323.94853668 384.10181858 322.01780726 386.85087059 319.75 389.8125 C318.95335937 390.85664063 318.15671875 391.90078125 317.3359375 392.9765625 C316.56507813 393.97429687 315.79421875 394.97203125 315 396 C314.37351562 396.81210937 313.74703125 397.62421875 313.1015625 398.4609375 C311.97200451 399.9176073 310.83805479 401.37088481 309.69921875 402.8203125 C308.47817438 404.3866177 307.27441809 405.96645737 306.08203125 407.5546875 C305.14423828 408.79605469 305.14423828 408.79605469 304.1875 410.0625 C303.62417969 410.81660156 303.06085938 411.57070313 302.48046875 412.34765625 C301.99191406 412.89292969 301.50335938 413.43820312 301 414 C300.34 414 299.68 414 299 414 C299 414.66 299 415.32 299 416 C298.34 416 297.68 416 297 416 C296.62681641 416.87591797 296.62681641 416.87591797 296.24609375 417.76953125 C294.82504563 420.31316284 293.26807085 421.79407698 291.0625 423.6875 C290.02802734 424.59048828 290.02802734 424.59048828 288.97265625 425.51171875 C287 427 287 427 284 428 C284 428.66 284 429.32 284 430 C281.88695749 431.67119721 279.77598121 433.22214777 277.5625 434.75 C276.92594482 435.19593506 276.28938965 435.64187012 275.63354492 436.10131836 C273.76103194 437.40878569 271.88176754 438.70589921 270 440 C269.06671875 440.64582031 268.1334375 441.29164063 267.171875 441.95703125 C261.4516097 445.84946343 261.4516097 445.84946343 258 447 C257.56042969 447.64453125 257.12085938 448.2890625 256.66796875 448.953125 C254.46616754 451.6551012 252.66686099 451.96073859 249.3125 452.75 C248.31863281 452.99234375 247.32476562 453.2346875 246.30078125 453.484375 C245.16189453 453.73960937 245.16189453 453.73960937 244 454 C244 454.66 244 455.32 244 456 C242.99582031 456.37511719 241.99164063 456.75023437 240.95703125 457.13671875 C240.3019458 457.38196289 239.64686035 457.62720703 238.97192383 457.87988281 C237.51788902 458.4236869 236.0632868 458.96597597 234.6081543 459.50683594 C231.21617822 460.77210569 227.84806974 462.06256949 224.5 463.44140625 C217.97127636 466.12170333 212.02270309 467.59486441 205.02734375 468.4765625 C202.15733848 468.97279567 200.0046201 469.72523146 197.375 470.9375 C179.79567623 478.64823449 155.86755813 477 138 477 C138 454.89 138 432.78 138 410 C148.56 409.34 159.12 408.68 170 408 C170.33 407.67 170.66 407.34 171 407 C172.11375 406.9175 173.2275 406.835 174.375 406.75 C179.15411806 406.21993682 182.97490853 404.32809149 187.2734375 402.26171875 C190.37320943 400.82729707 193.49383587 399.77840003 196.7421875 398.7421875 C203.41688492 396.54808281 209.19971818 393.9957497 215 390 C216.175625 389.525625 217.35125 389.05125 218.5625 388.5625 C222.28763512 386.86925676 224.2439363 384.97952833 227 382 C230.62068966 379 230.62068966 379 233 379 C233 378.34 233 377.68 233 377 C234.5390625 375.44921875 234.5390625 375.44921875 236.625 373.6875 C237.35460937 373.06101562 238.08421875 372.43453125 238.8359375 371.7890625 C240.1104659 370.73539101 241.40146583 369.70026307 242.7265625 368.7109375 C247.03898571 365.46003385 248.95029455 361.85900763 251 357 C251.66 357 252.32 357 253 357 C253.3403125 355.9171875 253.3403125 355.9171875 253.6875 354.8125 C255 352 255 352 257.375 349.875 C261.0950882 345.80061769 262.36928889 341.20187734 264 336 C264.66 336 265.32 336 266 336 C266.103125 335.484375 266.20625 334.96875 266.3125 334.4375 C267.24263866 331.13973565 268.61395512 328.13366668 270 325 C270.66 325 271.32 325 272 325 C271.938125 323.14375 271.938125 323.14375 271.875 321.25 C271.875 317.8534556 272.32577506 315.9763999 274 313 C274.75990212 310.35061153 275.37337398 307.68554008 276 305 C276.66 305 277.32 305 278 305 C279.22200385 297.79736556 280.40293636 290.5879272 281.5625 283.375 C281.68923096 282.60051514 281.81596191 281.82603027 281.9465332 281.02807617 C283.45486107 271.578875 284.15716474 262.28768017 284.16796875 252.71875 C284.17129715 251.66578735 284.17462555 250.61282471 284.17805481 249.5279541 C284.18308968 247.30933057 284.18546421 245.09069955 284.18530273 242.87207031 C284.18747591 239.53697689 284.20563231 236.20222203 284.22460938 232.8671875 C284.2576713 220.42826155 283.75962585 208.31658074 282 196 C281.78742554 194.48019531 281.78742554 194.48019531 281.57055664 192.9296875 C281.21806452 190.53140673 280.83737217 188.14077011 280.4375 185.75 C280.31181641 184.97527344 280.18613281 184.20054687 280.05664062 183.40234375 C279.70930071 181.26738531 279.35610959 179.13351076 279 177 C278.80535156 175.82953125 278.61070312 174.6590625 278.41015625 173.453125 C278.27480469 172.64359375 278.13945312 171.8340625 278 171 C277.34 171 276.68 171 276 171 C275.76925781 170.21238281 275.53851563 169.42476562 275.30078125 168.61328125 C273.17263836 161.50545225 270.77577022 154.58074316 268.05078125 147.6796875 C267.31595653 145.80574787 266.63652314 143.90956942 266 142 C265.01 142 264.02 142 263 142 C262.82984375 141.39671875 262.6596875 140.7934375 262.484375 140.171875 C261.02159668 135.34781884 259.80400978 132.4358798 256 129 C255.64421875 127.93458984 255.64421875 127.93458984 255.28125 126.84765625 C253.44469364 122.76579776 250.62101827 119.91490096 247.5625 116.6875 C246.93214844 116.02032959 246.30179687 115.35315918 245.65234375 114.66577148 C237.50002369 106.20918341 228.28027611 100.38790628 218.06640625 94.76171875 C215 93 215 93 212.95703125 91.36328125 C210.42984184 89.60282396 208.12753812 89.14176387 205.125 88.5 C201.82715328 87.79151119 199.18797789 87.10095596 196.20703125 85.5 C192.04634564 83.5539546 188.08846076 83.07326477 183.5625 82.5 C174.81373027 81.38664517 174.81373027 81.38664517 170.77734375 79.46875 C142.55457842 68.49485159 110.27835685 76.41477201 80 76 C80 173.35 80 270.7 80 371 C98.48 371 116.96 371 136 371 C136 374 136 374 133.9375 376.25 C132.96151557 377.17005409 131.9819297 378.0862937 131 379 C129.74461686 380.2236682 128.49474946 381.45301651 127.25 382.6875 C126.65703125 383.26886719 126.0640625 383.85023438 125.453125 384.44921875 C123.90358196 385.95513974 123.90358196 385.95513974 123 388 C122.34 388 121.68 388 121 388 C121 388.66 121 389.32 121 390 C120.34 390 119.68 390 119 390 C118.76667969 390.55171875 118.53335938 391.1034375 118.29296875 391.671875 C116.65980716 394.61255267 114.60660793 396.79077251 112.3125 399.25 C111.39790249 400.23908888 110.4838413 401.22867396 109.5703125 402.21875 C108.72210938 403.1365625 107.87390625 404.054375 107 405 C105.33910243 406.86020528 103.69934112 408.73633278 102.06640625 410.62109375 C100.29208627 412.6637419 98.50558175 414.69442785 96.71484375 416.72265625 C95.5180794 418.08580602 94.32146633 419.44908864 93.125 420.8125 C92.54065186 421.4715332 91.95630371 422.13056641 91.35424805 422.80957031 C90.80679932 423.43573242 90.25935059 424.06189453 89.6953125 424.70703125 C89.20047363 425.2688208 88.70563477 425.83061035 88.19580078 426.40942383 C86.78816538 428.10663448 86.78816538 428.10663448 86 431 C85.360625 431.144375 84.72125 431.28875 84.0625 431.4375 C83.381875 431.623125 82.70125 431.80875 82 432 C81.74476563 432.54269531 81.48953125 433.08539062 81.2265625 433.64453125 C79.47707596 437.004214 76.90158981 439.52825783 74.3125 442.25 C73.2166794 443.41855062 72.12162288 444.58781826 71.02734375 445.7578125 C70.50124512 446.31887695 69.97514648 446.87994141 69.43310547 447.45800781 C67.15283835 449.91152861 64.9652244 452.44097465 62.77734375 454.9765625 C60.53969335 457.52404142 58.23574834 460.00710062 55.9375 462.5 C51.99801279 466.81238524 48.36447854 471.22681703 45 476 C40.57797429 475.59611475 38.42749984 472.58516996 35.6875 469.4375 C35.19894531 468.88956787 34.71039063 468.34163574 34.20703125 467.77709961 C32.79666601 466.19160469 31.39756855 464.59677068 30 463 C29.06607422 461.95199219 29.06607422 461.95199219 28.11328125 460.8828125 C25.03601614 457.41064412 22.0432351 453.86952331 19.05419922 450.32128906 C13.81710283 444.10548009 8.47395483 438.00966216 3 432 C-11 416.55409836 -11 416.55409836 -11 414 C-11.87785156 413.64228516 -11.87785156 413.64228516 -12.7734375 413.27734375 C-15.46847543 411.73124304 -16.7599136 410.04266808 -18.625 407.5625 C-22.50790717 402.52204692 -26.70428841 397.94204753 -31.09375 393.34765625 C-33 391 -33 391 -33 388 C-33.59941406 387.91105469 -34.19882813 387.82210938 -34.81640625 387.73046875 C-37.58237166 386.80518157 -38.29984494 385.69413132 -39.9375 383.3125 C-40.44667969 382.59578125 -40.95585937 381.8790625 -41.48046875 381.140625 C-42.23263672 380.08101563 -42.23263672 380.08101563 -43 379 C-45.99982777 374.931232 -45.99982777 374.931232 -50 372 C-50 371.34 -50 370.68 -50 370 C-33.5 370 -17 370 0 370 C0 247.9 0 125.8 0 0 Z " fill="#FDFDFD" transform="translate(180,105)"/>
<path d="M0 0 C1.31950653 -0.00281982 2.63901306 -0.00563965 3.99850464 -0.00854492 C5.47459425 -0.00660031 6.95068373 -0.00455212 8.42677307 -0.00241089 C9.97045432 -0.00376487 11.51413524 -0.00554479 13.05781555 -0.00772095 C17.26230999 -0.012296 21.46678001 -0.01050533 25.6712749 -0.00734186 C30.06259908 -0.00481818 34.4539211 -0.00715586 38.84524536 -0.00872803 C46.22219724 -0.01054989 53.59913912 -0.00814318 60.97608948 -0.00338745 C69.51424633 0.00205319 78.05237931 0.00029402 86.59053558 -0.00521386 C93.90942446 -0.00974691 101.22830614 -0.01039453 108.54719597 -0.00777519 C112.92354191 -0.00621322 117.29987662 -0.00601643 121.67622185 -0.00931168 C125.79080197 -0.0121931 129.90535121 -0.01020966 134.01992798 -0.00441742 C135.53327953 -0.0030912 137.04663367 -0.00348161 138.55998421 -0.00568008 C140.61961482 -0.00839704 142.67914536 -0.00500372 144.73876953 0 C146.47071391 0.00056554 146.47071391 0.00056554 148.23764706 0.0011425 C150.93287659 0.12698364 150.93287659 0.12698364 152.93287659 1.12698364 C154.80525928 1.28646103 156.68126066 1.40419472 158.55787659 1.50198364 C166.50161321 2.05619783 174.14427003 3.54504905 181.93287659 5.12698364 C183.53582581 5.44409302 183.53582581 5.44409302 185.17115784 5.76760864 C187.42646706 6.21420453 189.68032425 6.66672655 191.93287659 7.12698364 C188.42871864 8.26117969 185.45450747 8.08349554 181.80787659 7.75198364 C180.75342346 7.66174927 179.69897034 7.57151489 178.61256409 7.47854614 C175.93287659 7.12698364 175.93287659 7.12698364 173.93287659 6.12698364 C171.52978563 5.90135784 169.1460048 5.72658317 166.73756409 5.59182739 C166.03012054 5.54885025 165.322677 5.50587311 164.59379578 5.46159363 C162.33204552 5.32513587 160.06999157 5.19474116 157.80787659 5.06448364 C156.27530067 4.97308556 154.74274818 4.88129361 153.21022034 4.78909302 C149.45136253 4.56381696 145.6922212 4.34397824 141.93287659 4.12698364 C141.60287659 3.13698364 141.27287659 2.14698364 140.93287659 1.12698364 C92.75287659 1.12698364 44.57287659 1.12698364 -5.06712341 1.12698364 C-5.06712341 123.22698364 -5.06712341 245.32698364 -5.06712341 371.12698364 C-21.56712341 371.12698364 -38.06712341 371.12698364 -55.06712341 371.12698364 C-55.06712341 370.79698364 -55.06712341 370.46698364 -55.06712341 370.12698364 C-39.22712341 370.12698364 -23.38712341 370.12698364 -7.06712341 370.12698364 C-7.06934402 365.50634415 -7.07156464 360.88570465 -7.07385254 356.12504578 C-7.09373087 313.80096196 -7.10867023 271.4768787 -7.11818874 229.15279124 C-7.11943952 223.61122971 -7.12073384 218.0696682 -7.12205505 212.52810669 C-7.12231736 211.42483215 -7.12257967 210.32155761 -7.12284993 209.18485051 C-7.12720709 191.29587893 -7.13509488 173.40691056 -7.14427621 155.51794089 C-7.15361149 137.17670499 -7.15917876 118.83547077 -7.16121191 100.49423259 C-7.1625874 89.16704527 -7.16693938 77.83986698 -7.17503988 66.51268243 C-7.18030579 58.75639796 -7.18192806 51.00011819 -7.18062479 43.24383206 C-7.17998117 38.76178721 -7.18100165 34.27975821 -7.18632889 29.79771614 C-7.19116237 25.70143586 -7.19146241 21.60518221 -7.18802231 17.50890075 C-7.18759656 16.02033238 -7.18889273 14.5317624 -7.1920066 13.04319722 C-7.19596982 11.03308237 -7.19328011 9.02295758 -7.19017124 7.01284122 C-7.19074082 5.33200918 -7.19074082 5.33200918 -7.19132191 3.61722094 C-6.95303334 -1.16057512 -4.1674518 0.00136126 0 0 Z " fill="#67827F" transform="translate(185.06712341308594,103.87301635742188)"/>
<path d="M0 0 C18.08880543 -0.02333596 36.17760696 -0.04098261 54.26642418 -0.05181217 C62.66492592 -0.05697364 71.06341832 -0.06401352 79.46191406 -0.07543945 C86.78002352 -0.08539083 94.09812621 -0.09185451 101.41624224 -0.09408849 C105.29293888 -0.09539483 109.16961616 -0.09847582 113.04630661 -0.10573006 C116.69220631 -0.11249741 120.33807861 -0.11461549 123.98398399 -0.11310768 C125.96600569 -0.11351568 127.94802438 -0.11890717 129.93003845 -0.12442017 C131.68851357 -0.12235817 131.68851357 -0.12235817 133.48251343 -0.12025452 C134.50570364 -0.12117631 135.52889385 -0.1220981 136.58308983 -0.12304783 C139 0 139 0 141 1 C142.8723827 1.15947739 144.74838408 1.27721108 146.625 1.375 C154.56873663 1.92921418 162.21139344 3.4180654 170 5 C171.60294922 5.31710938 171.60294922 5.31710938 173.23828125 5.640625 C175.49359047 6.08722089 177.74744766 6.53974291 180 7 C176.49584206 8.13419605 173.52163089 7.9565119 169.875 7.625 C168.82054687 7.53476563 167.76609375 7.44453125 166.6796875 7.3515625 C164 7 164 7 162 6 C159.59690905 5.77437419 157.21312822 5.59959952 154.8046875 5.46484375 C154.09724396 5.42186661 153.38980042 5.37888947 152.66091919 5.33460999 C150.39916894 5.19815223 148.13711498 5.06775752 145.875 4.9375 C144.34242408 4.84610192 142.8098716 4.75430997 141.27734375 4.66210938 C137.51848594 4.43683332 133.75934461 4.2169946 130 4 C129.67 3.01 129.34 2.02 129 1 C86.43 1 43.86 1 0 1 C0 0.67 0 0.34 0 0 Z " fill="#78908E" transform="translate(197,104)"/>
<path d="M0 0 C3 2 3 2 3.66015625 4.58203125 C3.79292969 5.64808594 3.92570313 6.71414063 4.0625 7.8125 C4.21589844 8.9675 4.36929688 10.1225 4.52734375 11.3125 C4.68332031 12.529375 4.83929687 13.74625 5 15 C5.36831792 17.43851864 5.74297536 19.87609108 6.125 22.3125 C6.41666667 24.20833333 6.70833333 26.10416667 7 28 C7.66 28 8.32 28 9 28 C14.93998333 107.92911075 14.93998333 107.92911075 6 144 C5.67 144 5.34 144 5 144 C5 140.37 5 136.74 5 133 C5.66 133 6.32 133 7 133 C6.98839844 131.80761719 6.97679687 130.61523438 6.96484375 129.38671875 C6.95546408 127.82031406 6.94636407 126.25390769 6.9375 124.6875 C6.92912109 123.90181641 6.92074219 123.11613281 6.91210938 122.30664062 C6.90888672 121.54931641 6.90566406 120.79199219 6.90234375 120.01171875 C6.89710693 119.31522217 6.89187012 118.61872559 6.88647461 117.90112305 C7 116 7 116 8 113 C8.09434812 110.9120859 8.12793765 108.82124537 8.12939453 106.73120117 C8.13254669 105.43522507 8.13569885 104.13924896 8.13894653 102.80400085 C8.13715457 101.38365648 8.13510308 99.96331241 8.1328125 98.54296875 C8.13348682 97.07863855 8.13445792 95.61430846 8.13571167 94.14997864 C8.1371877 91.07238709 8.13504051 87.99482451 8.13037109 84.91723633 C8.12472912 81.011983 8.12791782 77.10679924 8.13394356 73.20154858 C8.1375993 70.1702474 8.13638694 67.13896202 8.13381577 64.10766029 C8.13315736 62.67065739 8.13393602 61.23365296 8.13629532 59.79665184 C8.5610819 42.42603515 8.5610819 42.42603515 4.828125 25.6875 C2.95955686 19.62346754 2.28304969 13.21481339 1.31542969 6.95507812 C0.93918892 4.62308425 0.48986264 2.31067283 0 0 Z " fill="#B7C6C4" transform="translate(533,255)"/>
<path d="M0 0 C3 2 3 2 3.66015625 4.58203125 C3.79292969 5.64808594 3.92570313 6.71414063 4.0625 7.8125 C4.21589844 8.9675 4.36929688 10.1225 4.52734375 11.3125 C4.68332031 12.529375 4.83929687 13.74625 5 15 C5.36831792 17.43851864 5.74297536 19.87609108 6.125 22.3125 C6.41666667 24.20833333 6.70833333 26.10416667 7 28 C7.66 28 8.32 28 9 28 C9.33 35.26 9.66 42.52 10 50 C7.94228911 45.88457821 7.72586679 43.81251246 7.5625 39.3125 C7.26960441 34.30244384 6.6211469 30.32826257 4.828125 25.6875 C2.95955686 19.62346754 2.28304969 13.21481339 1.31542969 6.95507812 C0.93918892 4.62308425 0.48986264 2.31067283 0 0 Z " fill="#6E8A86" transform="translate(533,255)"/>
<path d="M0 0 C7.96866141 -0.13374457 15.86401596 0.2671421 23.8125 0.8125 C24.99392578 0.88275391 26.17535156 0.95300781 27.39257812 1.02539062 C35.50390225 1.58096077 43.13710161 2.9395195 51 5 C47.43257637 5.9928162 44.57832807 5.96166619 40.875 5.625 C39.82054687 5.53476563 38.76609375 5.44453125 37.6796875 5.3515625 C35 5 35 5 33 4 C30.60834978 3.79842415 28.23589378 3.64793326 25.83984375 3.53515625 C24.39256212 3.45667479 22.94529694 3.37788957 21.49804688 3.29882812 C19.21134682 3.17883858 16.92458498 3.06187077 14.63745117 2.95043945 C12.43354384 2.84127417 10.23053709 2.72028434 8.02734375 2.59765625 C7.33881821 2.56736832 6.65029266 2.53708038 5.94090271 2.50587463 C4.28808539 2.41031611 2.64160453 2.21464175 1 2 C0.67 1.34 0.34 0.68 0 0 Z " fill="#D0D9D8" transform="translate(326,106)"/>
<path d="M0 0 C0.33 0.99 0.66 1.98 1 3 C0.154375 3.66 -0.69125 4.32 -1.5625 5 C-4.87375619 7.74763811 -7.60056684 10.86089215 -10.38671875 14.12890625 C-12.16318382 16.18926163 -14.03774585 18.11623602 -16 20 C-16.99 19.67 -17.98 19.34 -19 19 C-18.01 17.515 -18.01 17.515 -17 16 C-16.34 16 -15.68 16 -15 16 C-15 15.34 -15 14.68 -15 14 C-14.34 14 -13.68 14 -13 14 C-12.7628125 13.44828125 -12.525625 12.8965625 -12.28125 12.328125 C-10.68754857 9.43225289 -8.71082727 7.20487963 -6.5 4.75 C-5.30890625 3.41195313 -5.30890625 3.41195313 -4.09375 2.046875 C-2 0 -2 0 0 0 Z " fill="#365C56" transform="translate(316,479)"/>
<path d="M0 0 C-1.81191882 1.81191882 -4.72351299 1.4723513 -7.1875 1.71875 C-9.0167533 1.81998043 -9.0167533 1.81998043 -10 3 C-12.92199902 3.24349992 -15.82250628 3.42673298 -18.75 3.5625 C-19.60440674 3.6049585 -20.45881348 3.64741699 -21.33911133 3.69116211 C-28.23153709 4.01253706 -35.10001315 4.11148991 -42 4 C-42 3.34 -42 2.68 -42 2 C-41.13197754 1.97494385 -40.26395508 1.9498877 -39.36962891 1.92407227 C-36.15286837 1.82900516 -32.93627151 1.72976797 -29.71972656 1.62768555 C-28.3268741 1.58434154 -26.93396869 1.54266604 -25.54101562 1.50268555 C-23.54023349 1.44497068 -21.53964141 1.38078131 -19.5390625 1.31640625 C-18.33459473 1.27974854 -17.13012695 1.24309082 -15.88916016 1.20532227 C-13.06003633 1.18947013 -13.06003633 1.18947013 -11 0 C-9.50650886 -0.25077277 -8.00471429 -0.45400974 -6.5 -0.625 C-5.7059375 -0.72039062 -4.911875 -0.81578125 -4.09375 -0.9140625 C-2 -1 -2 -1 0 0 Z " fill="#3C625D" transform="translate(360,511)"/>
<path d="M0 0 C2.36104107 7.81647688 -0.30311174 15.61467522 -3 23 C-4.59119364 28.03877987 -5.44914797 32.76690573 -6 38 C-6.66 38 -7.32 38 -8 38 C-7.7052268 33.13115986 -7.34503198 28.53025555 -5.625 23.9375 C-3.69135861 18.68633661 -2.89422913 13.26668136 -2.00244141 7.76342773 C-1.08971487 2.17942974 -1.08971487 2.17942974 0 0 Z " fill="#537470" transform="translate(540,390)"/>
<path d="M0 0 C-2.72907528 1.12373688 -5.44309051 2.14485651 -8.25 3.0625 C-10.88068876 3.73364914 -10.88068876 3.73364914 -12 5 C-14.18292774 5.23481693 -16.37203174 5.41363323 -18.5625 5.5625 C-19.76003906 5.64628906 -20.95757812 5.73007812 -22.19140625 5.81640625 C-23.11824219 5.87699219 -24.04507812 5.93757812 -25 6 C-18.92740289 1.95160193 -7.07767387 -3.53883693 0 0 Z " fill="#A1B3B1" transform="translate(397,572)"/>
<path d="M0 0 C0 4.69689013 -1.21137932 7.1916638 -4.5 10.5625 C-5.325 11.366875 -6.15 12.17125 -7 13 C-7.350625 13.721875 -7.70125 14.44375 -8.0625 15.1875 C-9.27341861 17.52860931 -10.60177814 18.04071126 -13 19 C-11.61864431 14.9990786 -9.75892559 12.18626603 -7.0625 8.9375 C-4.64156747 6.00070521 -2.25778826 3.06464676 0 0 Z " fill="#4D6E6A" transform="translate(504,488)"/>
<path d="M0 0 C8.34392221 0.17753026 14.62631553 2.13487719 22 6 C22 6.33 22 6.66 22 7 C20.02 7 18.04 7 16 7 C15.67 6.01 15.34 5.02 15 4 C13.75283203 3.81824219 13.75283203 3.81824219 12.48046875 3.6328125 C10.85044922 3.38144531 10.85044922 3.38144531 9.1875 3.125 C8.10855469 2.96257812 7.02960938 2.80015625 5.91796875 2.6328125 C3 2 3 2 0 0 Z " fill="#718C88" transform="translate(389,114)"/>
<path d="M0 0 C7.34918342 -0.43230491 13.90215087 1.18225815 21 3 C17.55914806 4.09744199 14.64461319 3.99015017 11.0625 3.6875 C10.04285156 3.60886719 9.02320313 3.53023438 7.97265625 3.44921875 C5.04160336 3.00628697 2.69266952 2.21492455 0 1 C0 0.67 0 0.34 0 0 Z " fill="#92A8A5" transform="translate(356,108)"/>
<path d="M0 0 C0.33 0 0.66 0 1 0 C1.40850553 7.08076251 -0.09579269 13.19925959 -2 20 C-2.33 20 -2.66 20 -3 20 C-2.88501733 17.79112243 -2.75756495 15.58289213 -2.625 13.375 C-2.55539062 12.14523437 -2.48578125 10.91546875 -2.4140625 9.6484375 C-2.0185513 6.16346145 -1.23738151 3.26950399 0 0 Z " fill="#567672" transform="translate(460,390)"/>
<path d="M0 0 C0.66 0.33 1.32 0.66 2 1 C-2.93654267 7.70459519 -2.93654267 7.70459519 -7.375 8.9375 C-8.24125 8.958125 -9.1075 8.97875 -10 9 C-6.83047153 5.73991357 -3.60062011 2.77762123 0 0 Z " fill="#3D615C" transform="translate(462,535)"/>
<path d="M0 0 C0.66 0 1.32 0 2 0 C2.33 0.99 2.66 1.98 3 3 C1.90716423 4.03295436 0.80029421 5.05107835 -0.3125 6.0625 C-0.92738281 6.63097656 -1.54226563 7.19945312 -2.17578125 7.78515625 C-2.77777344 8.18605469 -3.37976563 8.58695312 -4 9 C-4.99 8.67 -5.98 8.34 -7 8 C-5.88200014 6.66079162 -4.75538103 5.32877444 -3.625 4 C-2.68527344 2.88625 -2.68527344 2.88625 -1.7265625 1.75 C-1.15679687 1.1725 -0.58703125 0.595 0 0 Z " fill="#2E554F" transform="translate(314,479)"/>
<path d="M0 0 C0.33 0.66 0.66 1.32 1 2 C-0.61000397 5.13950774 -2.38499232 7.63404067 -5 10 C-5.99 9.67 -6.98 9.34 -8 9 C-5.36 6.03 -2.72 3.06 0 0 Z " fill="#426560" transform="translate(259,541)"/>
<path d="M0 0 C-0.99 1.485 -0.99 1.485 -2 3 C-4.6015625 3.29296875 -4.6015625 3.29296875 -7.625 3.1875 C-9.12933594 3.14689453 -9.12933594 3.14689453 -10.6640625 3.10546875 C-11.82035156 3.05326172 -11.82035156 3.05326172 -13 3 C-8.38322418 -0.07785055 -5.48548106 -1.5672803 0 0 Z " fill="#3D615B" transform="translate(416,566)"/>
<path d="M0 0 C-1.81191882 1.81191882 -4.72351299 1.4723513 -7.1875 1.71875 C-9.0167533 1.81998043 -9.0167533 1.81998043 -10 3 C-12.67058851 3.14115161 -15.32432238 3.04247107 -18 3 C-18 2.67 -18 2.34 -18 2 C-4.57142857 -2.28571429 -4.57142857 -2.28571429 0 0 Z " fill="#728E8B" transform="translate(360,511)"/>
<path d="M0 0 C3.26566506 4.89849759 3.09311493 8.31998909 3 14 C-0.26566506 9.10150241 -0.09311493 5.68001091 0 0 Z " fill="#607D79" transform="translate(457,276)"/>
<path d="M0 0 C5.06998019 0.65419099 9.41990777 2.8546409 14 5 C11.3333581 6.33332095 9.83319697 5.67102033 7 5 C7 4.34 7 3.68 7 3 C5.35 3 3.7 3 2 3 C2 2.34 2 1.68 2 1 C1.34 0.67 0.68 0.34 0 0 Z " fill="#B3C2C0" transform="translate(411,121)"/>
<path d="M0 0 C2.0625 0.4375 2.0625 0.4375 4 1 C1.22957891 3.77042109 -0.76533805 3.39796106 -4.625 3.625 C-5.81351562 3.69976563 -7.00203125 3.77453125 -8.2265625 3.8515625 C-9.59941406 3.92503906 -9.59941406 3.92503906 -11 4 C-7.54941314 1.69960876 -5.05904498 1.5261725 -1 1 C-0.67 0.67 -0.34 0.34 0 0 Z " fill="#567772" transform="translate(383,574)"/>
<path d="M0 0 C1.33332095 2.6666419 0.67102033 4.16680303 0 7 C-0.66 7 -1.32 7 -2 7 C-2.33 7.99 -2.66 8.98 -3 10 C-3.33 10 -3.66 10 -4 10 C-4 8.35 -4 6.7 -4 5 C-3.01 5 -2.02 5 -1 5 C-0.67 3.35 -0.34 1.7 0 0 Z " fill="#6A8783" transform="translate(525,447)"/>
<path d="M0 0 C0.66 0.33 1.32 0.66 2 1 C0.25 3.0625 0.25 3.0625 -2 5 C-4.25 4.75 -4.25 4.75 -6 4 C-4.02 2.68 -2.04 1.36 0 0 Z " fill="#587875" transform="translate(450,544)"/>
</svg>
